<svg id="Logo" xmlns="http://www.w3.org/2000/svg" viewBox="0 0 571.32 780.229">
  <defs>
    <style>
      #arriere-plan {
        fill: #0d1f2c;
      }

      #avant-plan {
        fill: #2a4d66;
      }
    </style>
  </defs>
  <title>logo</title>
  <path id="arriere-plan" class="cls-1" d="M733.385,289.961,757.1,131H650.3L620.5,330.686l-25.951,9.361.039-.016H509.9L539.9,131H424.334v61.271L403.1,340.031l-118.8,111.6v82.2l95.141-34.186L367.1,586.03,250.68,695.82v84.009l89.817-32.4L316.7,911.229H424.736l28.529-204.494,28.676-10.343-.074.036H563.9l-30,214.8H650.739V847.967L671.9,696.43l117.6-110.4v-84.4l-92.272,33.105L709.1,451.631,822,340.031V257.994ZM602.251,452,584.628,575.359,555.131,586H473.909l18.139-126.978L511.514,452Z" transform="translate(-250.68 -131)"/>
  <path id="avant-plan" class="cls-2" d="M733.385,289.961l-82.646,29.814V131H650.3L620.5,330.686,459.589,388.732V131H424.334V401.45L284.3,451.631v82.2l95.141-34.186,44.889-16.193V633.184L250.68,695.82v84.009l89.817-32.4,83.838-30.244V911.229h.4l28.529-204.494,162.219-58.508v263h35.255V635.51L789.5,586.03v-84.4l-92.272,33.105L650.739,551.51V401.775L822,340.031V257.994Zm-117.9,274.267L459.589,620.466V470.732l155.895-56.238Z" transform="translate(-250.68 -131)"/>
</svg>
